# xmcd
#
# Track frame offsets:
#	150
#	19516
#	33343
#	51836
#	67119
#	80636
#	95718
#	108397
#	125190
#	144035
#	159802
#	172607
#	190146
#	207069
#	228411
#
# Disc length: 3284 seconds
#
# Revision: 1
# Processed by: cddbd v1.5.2PL0 Copyright (c) Steve Scherf et al.
# Submitted via: audiograbber 1.83.01
#
DISCID=be0cd20f
DTITLE=Гриша Заречный - Шоферской...роман
DYEAR=2008
DGENRE=Шансон
TTITLE0=Такой вот коленкор
TTITLE1=Это не я имею машину - 2
TTITLE2=Шоферской роман
TTITLE3=8-е чудо
TTITLE4=Пробки
TTITLE5=Бомбилой не рождаются
TTITLE6=Нива
TTITLE7=Центурии
TTITLE8=Шоферское сердце
TTITLE9=Перегонщик
TTITLE10=На двойной
TTITLE11=Скорость 90
TTITLE12=Я вернусь
TTITLE13=Она может...
TTITLE14=Казачья
EXTD=
EXTT0=
EXTT1=
EXTT2=
EXTT3=
EXTT4=
EXTT5=
EXTT6=
EXTT7=
EXTT8=
EXTT9=
EXTT10=
EXTT11=
EXTT12=
EXTT13=
EXTT14=
PLAYORDER=
